<mxfile host="app.diagrams.net" agent="Mozilla/5.0 (Macintosh; Intel Mac OS X 10_15_7) AppleWebKit/537.36 (KHTML, like Gecko) Chrome/128.0.0.0 Safari/537.36" version="26.0.2">
  <diagram name="第 1 页" id="_WNoe_Uks1Ap6e2EYyFf">
    <mxGraphModel dx="1201" dy="241" grid="1" gridSize="10" guides="1" tooltips="1" connect="1" arrows="1" fold="1" page="1" pageScale="1" pageWidth="827" pageHeight="1169" math="0" shadow="0">
      <root>
        <mxCell id="0" />
        <mxCell id="1" parent="0" />
        <mxCell id="RNWjAcxMz1Vtfqlv8NzQ-35" value="" style="rounded=1;whiteSpace=wrap;html=1;dashed=1;dashPattern=8 8;" parent="1" vertex="1">
          <mxGeometry x="56" y="140" width="550" height="350" as="geometry" />
        </mxCell>
        <mxCell id="vnTurLJpViJdQ3g8BjFk-6" value="" style="rounded=1;whiteSpace=wrap;html=1;" parent="1" vertex="1">
          <mxGeometry x="130" y="409.5" width="450" height="60.5" as="geometry" />
        </mxCell>
        <mxCell id="gq4XQ7-GQHE91JWg9Zgm-81" value="&lt;font style=&quot;font-size: 15px;&quot;&gt;Cloud Layer&lt;/font&gt;" style="text;html=1;align=center;verticalAlign=middle;whiteSpace=wrap;rounded=0;fontSize=15;" parent="1" vertex="1">
          <mxGeometry x="73.99" y="160" width="56.01" height="59" as="geometry" />
        </mxCell>
        <mxCell id="gq4XQ7-GQHE91JWg9Zgm-82" value="&lt;font style=&quot;font-size: 15px;&quot;&gt;Edge Layer&lt;/font&gt;" style="text;html=1;align=center;verticalAlign=middle;whiteSpace=wrap;rounded=0;" parent="1" vertex="1">
          <mxGeometry x="73.99" y="288" width="56.01" height="53" as="geometry" />
        </mxCell>
        <mxCell id="gq4XQ7-GQHE91JWg9Zgm-83" value="&lt;font style=&quot;font-size: 15px;&quot;&gt;End Layer&lt;/font&gt;" style="text;html=1;align=center;verticalAlign=middle;whiteSpace=wrap;rounded=0;" parent="1" vertex="1">
          <mxGeometry x="78.75" y="420" width="46.48" height="30" as="geometry" />
        </mxCell>
        <mxCell id="vnTurLJpViJdQ3g8BjFk-4" value="&lt;font style=&quot;font-size: 15px;&quot;&gt;...&lt;/font&gt;" style="text;html=1;align=center;verticalAlign=middle;whiteSpace=wrap;rounded=0;" parent="1" vertex="1">
          <mxGeometry x="395.5" y="425" width="46.48" height="30" as="geometry" />
        </mxCell>
        <mxCell id="vnTurLJpViJdQ3g8BjFk-7" value="" style="group" parent="1" vertex="1" connectable="0">
          <mxGeometry x="140" y="420" width="110" height="40" as="geometry" />
        </mxCell>
        <mxCell id="gq4XQ7-GQHE91JWg9Zgm-61" value="" style="ellipse;whiteSpace=wrap;html=1;" parent="vnTurLJpViJdQ3g8BjFk-7" vertex="1">
          <mxGeometry width="110" height="40" as="geometry" />
        </mxCell>
        <mxCell id="vnTurLJpViJdQ3g8BjFk-8" value="" style="group" parent="vnTurLJpViJdQ3g8BjFk-7" vertex="1" connectable="0">
          <mxGeometry x="17" y="7" width="81" height="24.5" as="geometry" />
        </mxCell>
        <mxCell id="gq4XQ7-GQHE91JWg9Zgm-86" value="" style="sketch=0;outlineConnect=0;fontColor=#232F3E;gradientColor=none;fillColor=#474747;strokeColor=none;dashed=0;verticalLabelPosition=bottom;verticalAlign=top;align=center;html=1;fontSize=12;fontStyle=0;aspect=fixed;pointerEvents=1;shape=mxgraph.aws4.iot_thing_humidity_sensor;" parent="vnTurLJpViJdQ3g8BjFk-8" vertex="1">
          <mxGeometry x="57" y="0.5" width="24" height="24" as="geometry" />
        </mxCell>
        <mxCell id="gq4XQ7-GQHE91JWg9Zgm-87" value="" style="sketch=0;outlineConnect=0;fontColor=#232F3E;gradientColor=none;fillColor=#484847;strokeColor=none;dashed=0;verticalLabelPosition=bottom;verticalAlign=top;align=center;html=1;fontSize=12;fontStyle=0;aspect=fixed;pointerEvents=1;shape=mxgraph.aws4.iot_thing_temperature_humidity_sensor;" parent="vnTurLJpViJdQ3g8BjFk-8" vertex="1">
          <mxGeometry x="29" y="0.5" width="24" height="24" as="geometry" />
        </mxCell>
        <mxCell id="gq4XQ7-GQHE91JWg9Zgm-72" value="" style="sketch=0;outlineConnect=0;fontColor=#232F3E;gradientColor=none;fillColor=#666666;strokeColor=none;dashed=0;verticalLabelPosition=bottom;verticalAlign=top;align=center;html=1;fontSize=12;fontStyle=0;aspect=fixed;pointerEvents=1;shape=mxgraph.aws4.camera;" parent="vnTurLJpViJdQ3g8BjFk-7" vertex="1">
          <mxGeometry x="17" y="7.5" width="23.5" height="23.5" as="geometry" />
        </mxCell>
        <mxCell id="vnTurLJpViJdQ3g8BjFk-3" value="" style="group" parent="1" vertex="1" connectable="0">
          <mxGeometry x="470" y="418.5" width="99" height="40" as="geometry" />
        </mxCell>
        <mxCell id="gq4XQ7-GQHE91JWg9Zgm-75" value="" style="ellipse;whiteSpace=wrap;html=1;" parent="vnTurLJpViJdQ3g8BjFk-3" vertex="1">
          <mxGeometry width="99" height="40" as="geometry" />
        </mxCell>
        <mxCell id="gq4XQ7-GQHE91JWg9Zgm-74" value="" style="outlineConnect=0;dashed=0;verticalLabelPosition=bottom;verticalAlign=top;align=center;html=1;shape=mxgraph.aws3.car;fillColor=#4D4D4D;gradientColor=default;" parent="vnTurLJpViJdQ3g8BjFk-3" vertex="1">
          <mxGeometry x="13.5" y="9.5" width="24" height="20" as="geometry" />
        </mxCell>
        <mxCell id="gq4XQ7-GQHE91JWg9Zgm-76" value="" style="shape=image;html=1;verticalAlign=top;verticalLabelPosition=bottom;labelBackgroundColor=#ffffff;imageAspect=0;aspect=fixed;image=https://cdn4.iconfinder.com/data/icons/48-bubbles/48/36.Watch-128.png" parent="vnTurLJpViJdQ3g8BjFk-3" vertex="1">
          <mxGeometry x="39.5" y="6.5" width="25" height="25" as="geometry" />
        </mxCell>
        <mxCell id="gq4XQ7-GQHE91JWg9Zgm-77" value="" style="html=1;verticalLabelPosition=bottom;align=center;labelBackgroundColor=#ffffff;verticalAlign=top;strokeWidth=2;strokeColor=#4D4D4D;shadow=0;dashed=0;shape=mxgraph.ios7.icons.home;" parent="vnTurLJpViJdQ3g8BjFk-3" vertex="1">
          <mxGeometry x="67" y="8.5" width="20" height="21" as="geometry" />
        </mxCell>
        <mxCell id="vnTurLJpViJdQ3g8BjFk-1" value="" style="group" parent="1" vertex="1" connectable="0">
          <mxGeometry x="260" y="420" width="118" height="40" as="geometry" />
        </mxCell>
        <mxCell id="gq4XQ7-GQHE91JWg9Zgm-68" value="" style="ellipse;whiteSpace=wrap;html=1;" parent="vnTurLJpViJdQ3g8BjFk-1" vertex="1">
          <mxGeometry width="118" height="40" as="geometry" />
        </mxCell>
        <mxCell id="6WCOpJjpc-UluhNV7fM1-4" value="" style="image;html=1;image=img/lib/clip_art/computers/Laptop_128x128.png" vertex="1" parent="vnTurLJpViJdQ3g8BjFk-1">
          <mxGeometry x="19" y="7.5" width="26" height="25" as="geometry" />
        </mxCell>
        <mxCell id="5MsSHGTaEPdw5nVR3atU-17" value="" style="group" parent="1" vertex="1" connectable="0">
          <mxGeometry x="136" y="280" width="470" height="210" as="geometry" />
        </mxCell>
        <mxCell id="5MsSHGTaEPdw5nVR3atU-16" value="" style="rounded=1;whiteSpace=wrap;html=1;" parent="5MsSHGTaEPdw5nVR3atU-17" vertex="1">
          <mxGeometry x="-10" y="-8" width="450" height="88" as="geometry" />
        </mxCell>
        <mxCell id="Ehzzr9ug1EbWNZx6h8HB-2" value="" style="image;html=1;image=img/lib/clip_art/networking/Router_Icon_128x128.png" parent="5MsSHGTaEPdw5nVR3atU-17" vertex="1">
          <mxGeometry x="189.75" width="53" height="56" as="geometry" />
        </mxCell>
        <mxCell id="gq4XQ7-GQHE91JWg9Zgm-30" value="" style="fontColor=#0066CC;verticalAlign=top;verticalLabelPosition=bottom;labelPosition=center;align=center;html=1;outlineConnect=0;fillColor=#CCCCCC;strokeColor=light-dark(#1c5387, #ededed);gradientColor=#3399FF;gradientDirection=north;strokeWidth=2;shape=mxgraph.networks.radio_tower;" parent="5MsSHGTaEPdw5nVR3atU-17" vertex="1">
          <mxGeometry x="283.5" y="3" width="27" height="50" as="geometry" />
        </mxCell>
        <mxCell id="5MsSHGTaEPdw5nVR3atU-4" value="" style="shape=image;html=1;verticalAlign=top;verticalLabelPosition=bottom;labelBackgroundColor=#ffffff;imageAspect=0;image=https://cdn1.iconfinder.com/data/icons/bootstrap-vol-3/16/lightning-charge-128.png;rotation=91;" parent="5MsSHGTaEPdw5nVR3atU-17" vertex="1">
          <mxGeometry x="254.25" y="12.879999999999995" width="20" height="34" as="geometry" />
        </mxCell>
        <mxCell id="5MsSHGTaEPdw5nVR3atU-6" value="" style="fontColor=#0066CC;verticalAlign=top;verticalLabelPosition=bottom;labelPosition=center;align=center;html=1;outlineConnect=0;fillColor=#CCCCCC;strokeColor=light-dark(#1c5387, #ededed);gradientColor=#3399FF;gradientDirection=north;strokeWidth=2;shape=mxgraph.networks.radio_tower;" parent="5MsSHGTaEPdw5nVR3atU-17" vertex="1">
          <mxGeometry x="119.5" y="3" width="27" height="50" as="geometry" />
        </mxCell>
        <mxCell id="5MsSHGTaEPdw5nVR3atU-7" value="" style="shape=image;html=1;verticalAlign=top;verticalLabelPosition=bottom;labelBackgroundColor=#ffffff;imageAspect=0;image=https://cdn1.iconfinder.com/data/icons/bootstrap-vol-3/16/lightning-charge-128.png;rotation=91;imageBorder=none;imageBackground=none;" parent="5MsSHGTaEPdw5nVR3atU-17" vertex="1">
          <mxGeometry x="159.25" y="11.610000000000014" width="20" height="35" as="geometry" />
        </mxCell>
        <mxCell id="5MsSHGTaEPdw5nVR3atU-10" value="" style="group" parent="5MsSHGTaEPdw5nVR3atU-17" vertex="1" connectable="0">
          <mxGeometry y="1" width="430" height="69.61" as="geometry" />
        </mxCell>
        <mxCell id="5MsSHGTaEPdw5nVR3atU-8" value="" style="image;html=1;image=img/lib/clip_art/computers/Server_128x128.png" parent="5MsSHGTaEPdw5nVR3atU-10" vertex="1">
          <mxGeometry x="17.660377358490564" y="6.666666666666666" width="54.33962264150943" height="53.33333333333333" as="geometry" />
        </mxCell>
        <mxCell id="5MsSHGTaEPdw5nVR3atU-9" value="" style="image;html=1;image=img/lib/clip_art/computers/Server_Tower_128x128.png" parent="5MsSHGTaEPdw5nVR3atU-10" vertex="1">
          <mxGeometry width="54.33962264150943" height="53.33333333333333" as="geometry" />
        </mxCell>
        <mxCell id="5MsSHGTaEPdw5nVR3atU-11" value="" style="group" parent="5MsSHGTaEPdw5nVR3atU-17" vertex="1" connectable="0">
          <mxGeometry x="350" width="72" height="60" as="geometry" />
        </mxCell>
        <mxCell id="5MsSHGTaEPdw5nVR3atU-12" value="" style="image;html=1;image=img/lib/clip_art/computers/Server_128x128.png" parent="5MsSHGTaEPdw5nVR3atU-11" vertex="1">
          <mxGeometry x="17.660377358490564" y="6.666666666666666" width="54.33962264150943" height="53.33333333333333" as="geometry" />
        </mxCell>
        <mxCell id="5MsSHGTaEPdw5nVR3atU-13" value="" style="image;html=1;image=img/lib/clip_art/computers/Server_Tower_128x128.png" parent="5MsSHGTaEPdw5nVR3atU-11" vertex="1">
          <mxGeometry width="54.33962264150943" height="53.33333333333333" as="geometry" />
        </mxCell>
        <mxCell id="5MsSHGTaEPdw5nVR3atU-14" value="" style="endArrow=classic;startArrow=classic;html=1;rounded=0;strokeColor=#000066;" parent="5MsSHGTaEPdw5nVR3atU-17" edge="1">
          <mxGeometry width="50" height="50" relative="1" as="geometry">
            <mxPoint x="80" y="30" as="sourcePoint" />
            <mxPoint x="116" y="30" as="targetPoint" />
          </mxGeometry>
        </mxCell>
        <mxCell id="5MsSHGTaEPdw5nVR3atU-15" value="" style="endArrow=classic;startArrow=classic;html=1;rounded=0;strokeColor=#000066;" parent="5MsSHGTaEPdw5nVR3atU-17" edge="1">
          <mxGeometry width="50" height="50" relative="1" as="geometry">
            <mxPoint x="315" y="30" as="sourcePoint" />
            <mxPoint x="353" y="30" as="targetPoint" />
          </mxGeometry>
        </mxCell>
        <mxCell id="5MsSHGTaEPdw5nVR3atU-18" value="&lt;span style=&quot;font-size: 10px;&quot;&gt;Edge Servers&lt;/span&gt;" style="text;html=1;align=center;verticalAlign=middle;whiteSpace=wrap;rounded=0;fontSize=15;" parent="5MsSHGTaEPdw5nVR3atU-17" vertex="1">
          <mxGeometry x="-20.75" y="53" width="120.75" height="20.61" as="geometry" />
        </mxCell>
        <mxCell id="5MsSHGTaEPdw5nVR3atU-19" value="&lt;span style=&quot;font-size: 10px;&quot;&gt;Edge Servers&lt;/span&gt;" style="text;html=1;align=center;verticalAlign=middle;whiteSpace=wrap;rounded=0;fontSize=15;" parent="5MsSHGTaEPdw5nVR3atU-17" vertex="1">
          <mxGeometry x="325.62" y="51.879999999999995" width="120.75" height="20.61" as="geometry" />
        </mxCell>
        <mxCell id="5MsSHGTaEPdw5nVR3atU-21" value="&lt;span style=&quot;font-size: 10px;&quot;&gt;Base Station&lt;/span&gt;" style="text;html=1;align=center;verticalAlign=middle;whiteSpace=wrap;rounded=0;fontSize=15;" parent="5MsSHGTaEPdw5nVR3atU-17" vertex="1">
          <mxGeometry x="72.63" y="51.99999999999999" width="120.75" height="20.61" as="geometry" />
        </mxCell>
        <mxCell id="5MsSHGTaEPdw5nVR3atU-20" value="&lt;span style=&quot;font-size: 10px;&quot;&gt;Base Station&lt;/span&gt;" style="text;html=1;align=center;verticalAlign=middle;whiteSpace=wrap;rounded=0;fontSize=15;" parent="5MsSHGTaEPdw5nVR3atU-17" vertex="1">
          <mxGeometry x="237.62" y="52.88" width="120.75" height="20.61" as="geometry" />
        </mxCell>
        <mxCell id="6WCOpJjpc-UluhNV7fM1-5" value="" style="image;html=1;image=img/lib/clip_art/computers/iPad_128x128.png" vertex="1" parent="5MsSHGTaEPdw5nVR3atU-17">
          <mxGeometry x="171.75" y="144" width="18" height="30" as="geometry" />
        </mxCell>
        <mxCell id="6WCOpJjpc-UluhNV7fM1-6" value="" style="image;html=1;image=img/lib/clip_art/computers/iMac_128x128.png" vertex="1" parent="5MsSHGTaEPdw5nVR3atU-17">
          <mxGeometry x="197" y="144" width="20" height="30" as="geometry" />
        </mxCell>
        <mxCell id="5MsSHGTaEPdw5nVR3atU-27" value="" style="shape=image;html=1;verticalAlign=top;verticalLabelPosition=bottom;labelBackgroundColor=#ffffff;imageAspect=0;image=https://cdn1.iconfinder.com/data/icons/bootstrap-vol-3/16/lightning-charge-128.png;rotation=15;imageBorder=none;imageBackground=none;" parent="1" vertex="1">
          <mxGeometry x="286" y="371.04" width="23" height="30" as="geometry" />
        </mxCell>
        <mxCell id="5MsSHGTaEPdw5nVR3atU-28" value="" style="shape=image;html=1;verticalAlign=top;verticalLabelPosition=bottom;labelBackgroundColor=#ffffff;imageAspect=0;image=https://cdn1.iconfinder.com/data/icons/bootstrap-vol-3/16/lightning-charge-128.png;rotation=-50;imageBorder=none;imageBackground=none;" parent="1" vertex="1">
          <mxGeometry x="411" y="371.04" width="23" height="30" as="geometry" />
        </mxCell>
        <mxCell id="5MsSHGTaEPdw5nVR3atU-29" value="&lt;span style=&quot;font-size: 10px;&quot;&gt;4G/5G/LPWAN&lt;/span&gt;" style="text;html=1;align=center;verticalAlign=middle;whiteSpace=wrap;rounded=0;fontSize=15;" parent="1" vertex="1">
          <mxGeometry x="313.25" y="373.73" width="90.75" height="20.61" as="geometry" />
        </mxCell>
        <mxCell id="5MsSHGTaEPdw5nVR3atU-31" value="" style="endArrow=classic;html=1;rounded=0;entryX=0.09;entryY=1.032;entryDx=0;entryDy=0;entryPerimeter=0;strokeColor=light-dark(#3b9301, #ededed);" parent="1" edge="1">
          <mxGeometry width="50" height="50" relative="1" as="geometry">
            <mxPoint x="170" y="402.63" as="sourcePoint" />
            <mxPoint x="170.50000000000006" y="365.4459999999999" as="targetPoint" />
          </mxGeometry>
        </mxCell>
        <mxCell id="5MsSHGTaEPdw5nVR3atU-32" value="" style="image;html=1;image=img/lib/clip_art/computers/Database_Add_128x128.png" parent="1" vertex="1">
          <mxGeometry x="140" y="369.60999999999996" width="20" height="21.04" as="geometry" />
        </mxCell>
        <mxCell id="5MsSHGTaEPdw5nVR3atU-33" value="&lt;span style=&quot;font-size: 10px;&quot;&gt;Data&lt;/span&gt;" style="text;html=1;align=center;verticalAlign=middle;whiteSpace=wrap;rounded=0;fontSize=15;" parent="1" vertex="1">
          <mxGeometry x="132.63" y="389.39" width="30.75" height="11.65" as="geometry" />
        </mxCell>
        <mxCell id="5MsSHGTaEPdw5nVR3atU-34" value="" style="endArrow=classic;html=1;rounded=0;strokeColor=light-dark(#990000,#EDEDED);" parent="1" edge="1">
          <mxGeometry width="50" height="50" relative="1" as="geometry">
            <mxPoint x="180" y="369.04" as="sourcePoint" />
            <mxPoint x="180" y="401.04" as="targetPoint" />
          </mxGeometry>
        </mxCell>
        <mxCell id="RNWjAcxMz1Vtfqlv8NzQ-2" value="&lt;span style=&quot;font-size: 10px;&quot;&gt;Control&lt;/span&gt;" style="text;html=1;align=center;verticalAlign=middle;whiteSpace=wrap;rounded=0;fontSize=15;" parent="1" vertex="1">
          <mxGeometry x="187.62" y="389.65" width="30.75" height="11.65" as="geometry" />
        </mxCell>
        <mxCell id="RNWjAcxMz1Vtfqlv8NzQ-3" value="" style="endArrow=classic;html=1;rounded=0;entryX=0.09;entryY=1.032;entryDx=0;entryDy=0;entryPerimeter=0;strokeColor=light-dark(#3b9301, #ededed);" parent="1" edge="1">
          <mxGeometry width="50" height="50" relative="1" as="geometry">
            <mxPoint x="507.37" y="401.04" as="sourcePoint" />
            <mxPoint x="507.87000000000006" y="363.85599999999994" as="targetPoint" />
          </mxGeometry>
        </mxCell>
        <mxCell id="RNWjAcxMz1Vtfqlv8NzQ-4" value="" style="image;html=1;image=img/lib/clip_art/computers/Database_Add_128x128.png" parent="1" vertex="1">
          <mxGeometry x="477.37" y="368.02" width="20" height="21.04" as="geometry" />
        </mxCell>
        <mxCell id="RNWjAcxMz1Vtfqlv8NzQ-5" value="&lt;span style=&quot;font-size: 10px;&quot;&gt;Data&lt;/span&gt;" style="text;html=1;align=center;verticalAlign=middle;whiteSpace=wrap;rounded=0;fontSize=15;" parent="1" vertex="1">
          <mxGeometry x="470" y="387.8" width="30.75" height="11.65" as="geometry" />
        </mxCell>
        <mxCell id="RNWjAcxMz1Vtfqlv8NzQ-6" value="" style="endArrow=classic;html=1;rounded=0;strokeColor=light-dark(#990000,#EDEDED);" parent="1" edge="1">
          <mxGeometry width="50" height="50" relative="1" as="geometry">
            <mxPoint x="517.37" y="367.45000000000005" as="sourcePoint" />
            <mxPoint x="517.37" y="399.45000000000005" as="targetPoint" />
          </mxGeometry>
        </mxCell>
        <mxCell id="RNWjAcxMz1Vtfqlv8NzQ-8" value="&lt;span style=&quot;font-size: 10px;&quot;&gt;Control&lt;/span&gt;" style="text;html=1;align=center;verticalAlign=middle;whiteSpace=wrap;rounded=0;fontSize=15;" parent="1" vertex="1">
          <mxGeometry x="524.99" y="388.06" width="30.75" height="11.65" as="geometry" />
        </mxCell>
        <mxCell id="RNWjAcxMz1Vtfqlv8NzQ-9" value="" style="group" parent="1" vertex="1" connectable="0">
          <mxGeometry x="120" y="139" width="460" height="181" as="geometry" />
        </mxCell>
        <mxCell id="gq4XQ7-GQHE91JWg9Zgm-27" value="" style="ellipse;shape=cloud;whiteSpace=wrap;html=1;" parent="RNWjAcxMz1Vtfqlv8NzQ-9" vertex="1">
          <mxGeometry width="460" height="101.22" as="geometry" />
        </mxCell>
        <mxCell id="Ehzzr9ug1EbWNZx6h8HB-3" value="" style="image;html=1;image=img/lib/clip_art/networking/Cloud_Rack_Private_128x128.png" parent="RNWjAcxMz1Vtfqlv8NzQ-9" vertex="1">
          <mxGeometry x="223" y="10.61" width="50" height="55" as="geometry" />
        </mxCell>
        <mxCell id="Ehzzr9ug1EbWNZx6h8HB-4" value="" style="image;html=1;image=img/lib/clip_art/networking/Cloud_Server_128x128.png" parent="RNWjAcxMz1Vtfqlv8NzQ-9" vertex="1">
          <mxGeometry x="120" y="8.559999999999999" width="90" height="81.44" as="geometry" />
        </mxCell>
        <mxCell id="Ehzzr9ug1EbWNZx6h8HB-6" value="&lt;font style=&quot;font-size: 10px;&quot;&gt;&lt;font style=&quot;&quot;&gt;P&lt;/font&gt;&lt;span style=&quot;background-color: transparent; color: light-dark(rgb(0, 0, 0), rgb(255, 255, 255));&quot;&gt;ublic/Private/Hybrid Cloud&lt;/span&gt;&lt;/font&gt;" style="text;html=1;align=center;verticalAlign=middle;whiteSpace=wrap;rounded=0;fontSize=15;" parent="RNWjAcxMz1Vtfqlv8NzQ-9" vertex="1">
          <mxGeometry x="203" y="60" width="180" height="20.61" as="geometry" />
        </mxCell>
        <mxCell id="RNWjAcxMz1Vtfqlv8NzQ-12" value="" style="endArrow=classic;html=1;rounded=0;entryX=0.09;entryY=1.032;entryDx=0;entryDy=0;entryPerimeter=0;strokeColor=light-dark(#3b9301, #ededed);" parent="RNWjAcxMz1Vtfqlv8NzQ-9" edge="1">
          <mxGeometry width="50" height="50" relative="1" as="geometry">
            <mxPoint x="71.63" y="127.18" as="sourcePoint" />
            <mxPoint x="72.13000000000005" y="89.99599999999992" as="targetPoint" />
          </mxGeometry>
        </mxCell>
        <mxCell id="RNWjAcxMz1Vtfqlv8NzQ-14" value="&lt;span style=&quot;font-size: 10px;&quot;&gt;Service&lt;/span&gt;" style="text;html=1;align=center;verticalAlign=middle;whiteSpace=wrap;rounded=0;fontSize=15;" parent="RNWjAcxMz1Vtfqlv8NzQ-9" vertex="1">
          <mxGeometry x="34.849999999999994" y="111.94" width="30.75" height="11.65" as="geometry" />
        </mxCell>
        <mxCell id="RNWjAcxMz1Vtfqlv8NzQ-15" value="" style="endArrow=classic;html=1;rounded=0;strokeColor=light-dark(#990000,#EDEDED);" parent="RNWjAcxMz1Vtfqlv8NzQ-9" edge="1">
          <mxGeometry width="50" height="50" relative="1" as="geometry">
            <mxPoint x="81.63" y="93.59000000000003" as="sourcePoint" />
            <mxPoint x="81.63" y="125.59000000000003" as="targetPoint" />
          </mxGeometry>
        </mxCell>
        <mxCell id="RNWjAcxMz1Vtfqlv8NzQ-18" value="" style="endArrow=classic;html=1;rounded=0;entryX=0.09;entryY=1.032;entryDx=0;entryDy=0;entryPerimeter=0;strokeColor=light-dark(#3b9301, #ededed);" parent="RNWjAcxMz1Vtfqlv8NzQ-9" edge="1">
          <mxGeometry width="50" height="50" relative="1" as="geometry">
            <mxPoint x="404.82" y="127.18" as="sourcePoint" />
            <mxPoint x="405.32000000000005" y="89.99599999999992" as="targetPoint" />
          </mxGeometry>
        </mxCell>
        <mxCell id="RNWjAcxMz1Vtfqlv8NzQ-21" value="" style="endArrow=classic;html=1;rounded=0;strokeColor=light-dark(#990000,#EDEDED);" parent="RNWjAcxMz1Vtfqlv8NzQ-9" edge="1">
          <mxGeometry width="50" height="50" relative="1" as="geometry">
            <mxPoint x="414.82" y="93.59000000000003" as="sourcePoint" />
            <mxPoint x="414.82" y="125.59000000000003" as="targetPoint" />
          </mxGeometry>
        </mxCell>
        <mxCell id="RNWjAcxMz1Vtfqlv8NzQ-24" value="" style="image;html=1;image=img/lib/clip_art/computers/Virtual_Application_128x128.png" parent="RNWjAcxMz1Vtfqlv8NzQ-9" vertex="1">
          <mxGeometry x="30" y="90" width="40.45" height="24.2" as="geometry" />
        </mxCell>
        <mxCell id="RNWjAcxMz1Vtfqlv8NzQ-25" value="&lt;span style=&quot;font-size: 10px;&quot;&gt;Service&lt;/span&gt;" style="text;html=1;align=center;verticalAlign=middle;whiteSpace=wrap;rounded=0;fontSize=15;" parent="RNWjAcxMz1Vtfqlv8NzQ-9" vertex="1">
          <mxGeometry x="364.84999999999997" y="114.19999999999999" width="30.75" height="11.65" as="geometry" />
        </mxCell>
        <mxCell id="RNWjAcxMz1Vtfqlv8NzQ-26" value="" style="image;html=1;image=img/lib/clip_art/computers/Virtual_Application_128x128.png" parent="RNWjAcxMz1Vtfqlv8NzQ-9" vertex="1">
          <mxGeometry x="360" y="92.25999999999999" width="40.45" height="24.2" as="geometry" />
        </mxCell>
        <mxCell id="RNWjAcxMz1Vtfqlv8NzQ-10" value="" style="shape=image;html=1;verticalAlign=top;verticalLabelPosition=bottom;labelBackgroundColor=#ffffff;imageAspect=0;image=https://cdn1.iconfinder.com/data/icons/bootstrap-vol-3/16/lightning-charge-128.png;rotation=15;imageBorder=none;imageBackground=none;" parent="1" vertex="1">
          <mxGeometry x="343.5" y="240.22000000000003" width="23" height="30" as="geometry" />
        </mxCell>
        <mxCell id="RNWjAcxMz1Vtfqlv8NzQ-27" value="" style="shape=flexArrow;endArrow=classic;startArrow=classic;html=1;rounded=0;width=26.315789473684212;startSize=7.142105263157895;startWidth=17.231833910034602;gradientDirection=radial;fillColor=#f5f5f5;strokeColor=#666666;" parent="1" edge="1">
          <mxGeometry width="100" height="100" relative="1" as="geometry">
            <mxPoint x="13.38000000000001" y="474.5" as="sourcePoint" />
            <mxPoint x="13.38000000000001" y="154.5" as="targetPoint" />
          </mxGeometry>
        </mxCell>
        <mxCell id="RNWjAcxMz1Vtfqlv8NzQ-33" value="" style="shape=flexArrow;endArrow=classic;startArrow=classic;html=1;rounded=0;width=26.315789473684212;startSize=7.142105263157895;startWidth=17.231833910034602;fillColor=#f5f5f5;strokeColor=#666666;gradientDirection=radial;" parent="1" edge="1">
          <mxGeometry width="100" height="100" relative="1" as="geometry">
            <mxPoint x="56" y="520" as="sourcePoint" />
            <mxPoint x="600" y="520" as="targetPoint" />
          </mxGeometry>
        </mxCell>
        <mxCell id="RNWjAcxMz1Vtfqlv8NzQ-34" value="&lt;span style=&quot;font-size: 15px;&quot;&gt;水&amp;nbsp; &amp;nbsp; &amp;nbsp; 平&lt;/span&gt;&lt;span style=&quot;font-size: 15px;&quot;&gt;&amp;nbsp; &amp;nbsp; &amp;nbsp;&amp;nbsp;&lt;/span&gt;&lt;span style=&quot;font-size: 15px;&quot;&gt;协&lt;/span&gt;&lt;span style=&quot;font-size: 15px;&quot;&gt;&amp;nbsp; &amp;nbsp; &amp;nbsp;&amp;nbsp;&lt;/span&gt;&lt;span style=&quot;font-size: 15px;&quot;&gt;作&lt;/span&gt;" style="text;html=1;align=center;verticalAlign=middle;whiteSpace=wrap;rounded=0;rotation=0;" parent="1" vertex="1">
          <mxGeometry x="131.23" y="492" width="388.77" height="53" as="geometry" />
        </mxCell>
        <mxCell id="RNWjAcxMz1Vtfqlv8NzQ-36" value="&lt;span style=&quot;font-size: 15px;&quot;&gt;垂&amp;nbsp; &amp;nbsp; &amp;nbsp;&amp;nbsp;&lt;/span&gt;&lt;span style=&quot;font-size: 15px;&quot;&gt;直&lt;/span&gt;&lt;span style=&quot;font-size: 15px;&quot;&gt;&amp;nbsp; &amp;nbsp; &amp;nbsp;&amp;nbsp;&lt;/span&gt;&lt;span style=&quot;font-size: 15px;&quot;&gt;协&lt;/span&gt;&lt;span style=&quot;font-size: 15px;&quot;&gt;&amp;nbsp; &amp;nbsp; &amp;nbsp;&amp;nbsp;&lt;/span&gt;&lt;span style=&quot;font-size: 15px;&quot;&gt;作&lt;/span&gt;" style="text;html=1;align=center;verticalAlign=middle;whiteSpace=wrap;rounded=0;rotation=-90;" parent="1" vertex="1">
          <mxGeometry x="-70.00000000000001" y="292.37" width="167.81" height="43" as="geometry" />
        </mxCell>
        <mxCell id="6WCOpJjpc-UluhNV7fM1-1" value="" style="outlineConnect=0;dashed=0;verticalLabelPosition=bottom;verticalAlign=top;align=center;html=1;shape=mxgraph.aws3.sensor;fillColor=#1C7EFF;gradientColor=none;" vertex="1" parent="1">
          <mxGeometry x="191.62" y="366.65000000000003" width="25" height="24" as="geometry" />
        </mxCell>
        <mxCell id="6WCOpJjpc-UluhNV7fM1-2" value="" style="outlineConnect=0;dashed=0;verticalLabelPosition=bottom;verticalAlign=top;align=center;html=1;shape=mxgraph.aws3.sensor;fillColor=#1C7EFF;gradientColor=none;" vertex="1" parent="1">
          <mxGeometry x="527.87" y="365.65000000000003" width="25" height="24" as="geometry" />
        </mxCell>
      </root>
    </mxGraphModel>
  </diagram>
</mxfile>
